<svg fill="#0057e4" xmlns="http://www.w3.org/2000/svg" width="34.881" height="32.599" viewBox="0 0 34.881 32.599">
    <defs>
        <linearGradient id="prefix__linear-gradient" x1=".5" x2=".5" y2="1" gradientUnits="objectBoundingBox">
            <stop offset="0" stop-color="#00d7ef"/>
            <stop offset="1" stop-color="#00afef"/>
        </linearGradient>
    </defs>
    <g id="prefix__calendar_5_" data-name="calendar (5)" transform="translate(-1 -2)">
        <path id="prefix__Path_630" d="M32.078 2h-3.26v3.26a1.087 1.087 0 1 1-2.173 0V2H9.258v3.26a1.087 1.087 0 1 1-2.173 0V2h-3.26A2.993 2.993 0 0 0 1 5.26v3.912h34.772V5.26c0-1.847-1.956-3.26-3.695-3.26zM1 11.454v19.885A2.949 2.949 0 0 0 3.934 34.6h28.252c1.739 0 3.695-1.413 3.695-3.26V11.454zm9.671 18.255H8.063a.857.857 0 0 1-.869-.869v-2.717a.857.857 0 0 1 .869-.869h2.717a.857.857 0 0 1 .869.869v2.717a.951.951 0 0 1-.978.869zm0-9.78H8.063a.857.857 0 0 1-.869-.869v-2.716a.857.857 0 0 1 .869-.869h2.717a.857.857 0 0 1 .869.869v2.716a.951.951 0 0 1-.978.869zm8.693 9.78h-2.717a.857.857 0 0 1-.869-.869v-2.717a.857.857 0 0 1 .869-.869h2.717a.857.857 0 0 1 .869.869v2.717a.8.8 0 0 1-.869.869zm0-9.78h-2.717a.857.857 0 0 1-.869-.869v-2.716a.857.857 0 0 1 .869-.869h2.717a.857.857 0 0 1 .869.869v2.716a.8.8 0 0 1-.869.869zm8.693 9.78H25.34a.857.857 0 0 1-.869-.869v-2.717a.857.857 0 0 1 .869-.869h2.717a.857.857 0 0 1 .869.869v2.717a.8.8 0 0 1-.869.869zm0-9.78H25.34a.857.857 0 0 1-.869-.869v-2.716a.857.857 0 0 1 .869-.869h2.717a.857.857 0 0 1 .869.869v2.716a.8.8 0 0 1-.869.869z" data-name="Path 630"/>
    </g>
</svg>
