<?xml version="1.0" encoding="UTF-8"?>
<svg width="18px" height="20px" viewBox="0 0 18 20" version="1.1" xmlns="http://www.w3.org/2000/svg" xmlns:xlink="http://www.w3.org/1999/xlink">
    <title>ic_analytics</title>
    <defs>
        <path d="M13.3333333,0.833333333 C13.7935706,0.833333333 14.1666667,1.20642938 14.1666667,1.66666667 L14.1666667,1.66666667 L14.1666667,2.49933333 L15.8333333,2.5 C17.2140452,2.5 18.3333333,3.61928813 18.3333333,5 L18.3333333,16.6666667 C18.3333333,18.0473785 17.2140452,19.1666667 15.8333333,19.1666667 L4.16666667,19.1666667 C2.78595479,19.1666667 1.66666667,18.0473785 1.66666667,16.6666667 L1.66666667,5 C1.66666667,3.61928813 2.78595479,2.5 4.16666667,2.5 L5.83266667,2.49933333 L5.83333333,1.66666667 C5.83333333,1.24183224 6.15123765,0.891248353 6.5621351,0.839826183 L6.66666667,0.833333333 C7.12690396,0.833333333 7.5,1.20642938 7.5,1.66666667 L7.5,1.66666667 L7.49966667,2.49933333 L12.4996667,2.49933333 L12.5,1.66666667 C12.5,1.24183224 12.8179043,0.891248353 13.2288018,0.839826183 Z M16.6656667,9.16633333 L3.33266667,9.16633333 L3.33333333,16.6666667 C3.33333333,17.126904 3.70642938,17.5 4.16666667,17.5 L15.8333333,17.5 C16.2935706,17.5 16.6666667,17.126904 16.6666667,16.6666667 L16.6656667,9.16633333 Z M5.83266667,4.16633333 L4.16666667,4.16666667 C3.70642938,4.16666667 3.33333333,4.53976271 3.33333333,5 L3.33266667,7.49933333 L16.6656667,7.49933333 L16.6666667,5 C16.6666667,4.53976271 16.2935706,4.16666667 15.8333333,4.16666667 L14.1666667,4.16633333 L14.1666667,5 C14.1666667,5.42483442 13.8487623,5.77541831 13.4378649,5.82684048 L13.3333333,5.83333333 C12.873096,5.83333333 12.5,5.46023729 12.5,5 L12.5,5 L12.4996667,4.16633333 L7.49966667,4.16633333 L7.5,5 C7.5,5.42483442 7.18209568,5.77541831 6.77119823,5.82684048 L6.66666667,5.83333333 C6.20642938,5.83333333 5.83333333,5.46023729 5.83333333,5 L5.83333333,5 L5.83266667,4.16633333 Z" id="path-1"></path>
    </defs>
    <g id="Create-Event-Flow" stroke="none" stroke-width="1" fill="none" fill-rule="evenodd">
        <g id="02.8_Event_Breakout-Rooms-V2" transform="translate(-31.000000, -180.000000)">
            <g id="ic_analytics" transform="translate(30.000000, 180.000000)">
                <mask id="mask-2" fill="white">
                    <use xlink:href="#path-1"></use>
                </mask>
                <use id="Combined-Shape" fill="#0057E4" xlink:href="#path-1"></use>
            </g>
        </g>
    </g>
</svg>