<?xml version="1.0" encoding="UTF-8"?>
<svg width="21px" height="19px" viewBox="0 0 21 19" version="1.1" xmlns="http://www.w3.org/2000/svg" xmlns:xlink="http://www.w3.org/1999/xlink">
    <title>ic/chat</title>
    <g id="New-Breakout-Room" stroke="none" stroke-width="1" fill="none" fill-rule="evenodd">
        <g id="Speaker-with-camera-ON-Copy" transform="translate(-1828.000000, -23.000000)" fill="#0057E4">
            <g id="Group" transform="translate(1664.000000, 16.000000)">
                <g transform="translate(162.000000, 3.000000)" id="ic/events-copy">
                    <path d="M18.7440008,4 C20.5244462,4 21.9919648,5.40817047 22.0878212,7.16577583 L22.0928009,7.34880016 L22.0928009,15.7208006 C22.0928009,17.501246 20.6846305,18.9687646 18.9270251,19.0646209 L18.7440008,19.0696007 L9.86968037,19.0696007 L6.77204022,22.1672409 C6.2948362,22.6444449 5.43984566,22.3660759 5.35553962,21.691031 L5.34880016,21.5812008 L5.34880016,19.0696007 C3.56835474,19.0696007 2.10083609,17.6614302 2.00497979,15.9038249 L2,15.7208006 L2,7.34880016 C2,5.56835474 3.40817047,4.10083609 5.16577583,4.00497979 L5.34880016,4 L18.7440008,4 Z M18.7440008,6 L5.34880016,6 C4.65489843,6 4.07237975,6.54170093 4.00624918,7.22009773 L4,7.34880016 L4,15.7208006 C4,16.4147023 4.54170093,16.997221 5.22009773,17.0633515 L5.34880016,17.0696007 L7.34880016,17.0696007 L7.348,18.762 L9.04125324,17.0696007 L18.7440008,17.0696007 C19.4379025,17.0696007 20.0204212,16.5278998 20.0865518,15.849503 L20.0928009,15.7208006 L20.0928009,7.34880016 C20.0928009,6.65489843 19.5511,6.07237975 18.8727032,6.00624918 L18.7440008,6 Z M13.875,13 C14.55,13 15,13.4 15,14 C15,14.6 14.55,15 13.875,15 L7.125,15 C6.45,15 6,14.6 6,14 C6,13.4 6.45,13 7.125,13 L13.875,13 Z M16.8464005,8 C17.5664005,8 18.0464005,8.4 18.0464005,9 C18.0464005,9.6 17.5664005,10 16.8464005,10 L7.24640047,10 C6.52640047,10 6.04640047,9.6 6.04640047,9 C6.04640047,8.4 6.52640047,8 7.24640047,8 L16.8464005,8 Z" id="Combined-Shape"></path>
                </g>
            </g>
        </g>
    </g>
</svg>