<?xml version="1.0" encoding="UTF-8"?>
<svg width="16px" height="16px" viewBox="0 0 16 16" version="1.1" xmlns="http://www.w3.org/2000/svg" xmlns:xlink="http://www.w3.org/1999/xlink">
    <title>ic/clock/blue</title>
    <defs>
        <path d="M8,0.666666667 C12.0500882,0.666666667 15.3333333,3.94991183 15.3333333,8 C15.3333333,12.0500882 12.0500882,15.3333333 8,15.3333333 C3.94991183,15.3333333 0.666666667,12.0500882 0.666666667,8 C0.666666667,3.94991183 3.94991183,0.666666667 8,0.666666667 Z M8,2 C4.6862915,2 2,4.6862915 2,8 C2,11.3137085 4.6862915,14 8,14 C11.3137085,14 14,11.3137085 14,8 C14,4.6862915 11.3137085,2 8,2 Z M8,3.33333333 C8.36818983,3.33333333 8.66666667,3.63181017 8.66666667,4 L8.66666667,4 L8.66666667,7.72385763 L10.4714045,9.52859548 C10.731754,9.78894501 10.731754,10.211055 10.4714045,10.4714045 C10.211055,10.731754 9.78894501,10.731754 9.52859548,10.4714045 L9.52859548,10.4714045 L7.52859548,8.47140452 C7.40357123,8.34638027 7.33333333,8.17681099 7.33333333,8 L7.33333333,8 L7.33333333,4 C7.33333333,3.63181017 7.63181017,3.33333333 8,3.33333333 Z" id="path-1"></path>
    </defs>
    <g id="PWA" stroke="none" stroke-width="1" fill="none" fill-rule="evenodd">
        <g id="icons" transform="translate(-179.000000, -398.000000)">
            <g id="ic/clock" transform="translate(179.000000, 398.000000)">
                <mask id="mask-2" fill="white">
                    <use xlink:href="#path-1"></use>
                </mask>
                <use id="Combined-Shape" fill="#0057E4" xlink:href="#path-1"></use>
            </g>
        </g>
    </g>
</svg>