<?xml version="1.0" encoding="UTF-8"?>
<svg width="24px" height="24px" viewBox="0 0 24 24" version="1.1" xmlns="http://www.w3.org/2000/svg" xmlns:xlink="http://www.w3.org/1999/xlink">
    <!-- Generator: Sketch 63.1 (92452) - https://sketch.com -->
    <title>ic/crunch base</title>
    <desc>Created with Sketch.</desc>
    <g id="ic/crunch-base" stroke="none" stroke-width="1" fill="none" fill-rule="evenodd">
        <g id="Combined-Shape" transform="translate(4.000000, 4.000000)" fill="#FFFFFF" fill-rule="nonzero">
            <path d="M15.6734694,7.42444655e-14 C15.8538072,7.42444655e-14 16,0.146192735 16,0.326530612 L16,15.6734694 C16,15.8538072 15.8538072,16 15.6734694,16 L0.326530612,16 C0.146192735,16 2.96977862e-13,15.8538072 2.96977862e-13,15.6734694 L2.96977862e-13,0.326530612 C2.96977862e-13,0.146192735 0.146192735,7.42444655e-14 0.326530612,7.42444655e-14 L15.6734694,7.42444655e-14 Z M7.73180336,8.52613476 C7.34831912,7.12777022 5.99690919,6.21312118 4.54854178,6.38656091 C3.071207,6.56346945 1.95918367,7.81660049 1.95918367,9.3044898 C1.95918367,10.7923791 3.071207,12.0455101 4.54854178,12.2224187 C6.02587654,12.3993272 7.40233675,11.4441882 7.75364395,9.99836735 L7.75364395,9.99836735 L6.42792967,9.99836735 L6.39390005,10.0668653 C6.03969257,10.7413027 5.27292967,11.0971333 4.52436862,10.9247302 C3.75085551,10.7465803 3.20658718,10.0527159 3.21779213,9.2590319 C3.22899708,8.46534789 3.79263608,7.7871246 4.57087001,7.63088173 C5.34910393,7.47463886 6.13084307,7.88275605 6.4475215,8.61061224 L6.4475215,8.61061224 L7.75364395,8.61061224 L7.73180336,8.52613476 Z M9.68163265,3.59183673 L8.48979592,3.59183673 L8.48979592,12.0065306 L9.68816327,12.0065306 L9.68816327,11.6995918 L9.77109479,11.7558588 C10.802641,12.4305068 12.1509157,12.3907209 13.1425771,11.6467928 C14.1610401,10.8827587 14.5716821,9.54980193 14.1597244,8.34510024 C13.7575753,7.16908196 12.6608311,6.37642491 11.4245762,6.35754583 L11.4245762,6.35754583 L11.1183673,6.35755102 L11.0082279,6.36771024 C10.5324078,6.42076908 10.0765044,6.59091807 9.68163265,6.86367347 L9.68163265,6.86367347 L9.68163265,3.59183673 Z M11.2669388,7.6385711 L11.3534694,7.64081633 L11.4264369,7.64332666 C12.2731259,7.69054922 12.9545097,8.36124467 13.0151119,9.20708127 L13.0151119,9.20708127 L13.0187755,9.28 L13.0221334,9.35508327 C13.0232526,9.40517006 13.0221334,9.4552944 13.0187755,9.50530612 L13.0187755,9.50530612 L13.0187755,9.55755102 L13.0064248,9.62674818 L13.0064248,9.62674818 L12.9911799,9.69534991 L12.9730612,9.76326531 L12.9490751,9.83523291 C12.9320001,9.88282926 12.9127658,9.92963713 12.8914286,9.9755102 L12.8914286,9.9755102 L12.8914286,10.0016327 L12.8537079,10.0754145 C12.6303986,10.4870866 12.2463868,10.7881263 11.7933067,10.9066985 L11.7933067,10.9066985 L11.7126531,10.9257143 L11.5526531,10.9518367 L11.5167347,10.9518367 L11.4253061,10.9543583 L11.3338776,10.9518367 L11.2574597,10.949854 C11.2065641,10.9473772 11.1557939,10.9425922 11.1053061,10.9355102 L11.1053061,10.9355102 L11.0530612,10.9355102 L10.9648828,10.9186587 C10.8480219,10.8930493 10.7341681,10.854927 10.6253061,10.804898 L10.6253061,10.804898 L10.5926531,10.804898 L10.5115413,10.7622862 C10.4316573,10.7175179 10.3555403,10.6663358 10.2839419,10.6092453 L10.2839419,10.6092453 L10.2138776,10.5502041 L10.1467862,10.4856895 C10.0815213,10.4194009 10.0218031,10.3478704 9.96823308,10.2718183 L9.96823308,10.2718183 L9.91673469,10.1942857 L9.87758181,10.1263176 L9.87758181,10.1263176 L9.84164395,10.0566199 L9.80897959,9.98530612 L9.7748864,9.90142011 C9.62680411,9.50683471 9.63296147,9.07068901 9.79212376,8.68044118 L9.79212376,8.68044118 L9.82857143,8.59755102 L9.86296271,8.52897829 C10.1257566,8.03336042 10.6190895,7.69895847 11.1804082,7.64081633 L11.1804082,7.64081633 L11.2669388,7.6385711 Z"></path>
        </g>
    </g>
</svg>