<svg fill="#0057e4" xmlns="http://www.w3.org/2000/svg" width="34.74" height="32.566" viewBox="0 0 34.74 32.566">
    <g id="prefix__browser_2_" data-name="browser (2)" transform="translate(0 -16.014)">
        <path id="prefix__Path_629" d="M34.422 30.983l-13.5-13.5a5.028 5.028 0 0 0-7.1 0l-13.5 13.5a1.086 1.086 0 1 0 1.535 1.535l.861-.861v13.8a3.121 3.121 0 0 0 3.118 3.123h5.428a.678.678 0 0 0 .679-.679V37.859a3.393 3.393 0 0 1 3.393-3.393h4.071a3.393 3.393 0 0 1 3.393 3.393V47.9a.679.679 0 0 0 .679.679H28.9a3.121 3.121 0 0 0 3.121-3.121v-13.8l.861.861a1.086 1.086 0 1 0 1.535-1.535z" data-name="Path 629" style="fill:#0057e4"/>
    </g>
</svg>
