<?xml version="1.0" encoding="UTF-8"?>
<svg width="20px" height="22px" viewBox="0 0 20 22" version="1.1" xmlns="http://www.w3.org/2000/svg" xmlns:xlink="http://www.w3.org/1999/xlink">
    <title>ic/home</title>
    <defs>
        <path d="M5,23 C3.34314575,23 2,21.6568542 2,20 L2,9 C2,8.69140957 2.14247284,8.40010398 2.38605939,8.21064778 L11.3860594,1.21064778 C11.7471699,0.929784072 12.2528301,0.929784072 12.6139406,1.21064778 L21.6139406,8.21064778 C21.8575272,8.40010398 22,8.69140957 22,9 L22,20 C22,21.6568542 20.6568542,23 19,23 L5,23 Z M12,3.26686158 L4,9.48908381 L4,20 C4,20.5522847 4.44771525,21 5,21 L8,21 L8,12 C8,11.4871642 8.38604019,11.0644928 8.88337887,11.0067277 L9,11 L15,11 C15.5522847,11 16,11.4477153 16,12 L16,12 L16,21 L19,21 C19.5522847,21 20,20.5522847 20,20 L20,9.48908381 L12,3.26686158 Z M14,13 L10,13 L10,21 L14,21 L14,13 Z" id="path-1"></path>
    </defs>
    <g id="New-Breakout-Room" stroke="none" stroke-width="1" fill="none" fill-rule="evenodd">
        <g id="Speaker-with-camera-ON-Copy" transform="translate(-1720.000000, -20.000000)">
            <g id="Group" transform="translate(1664.000000, 16.000000)">
                <g transform="translate(54.000000, 3.000000)" id="ic/home">
                    <mask id="mask-2" fill="white">
                        <use xlink:href="#path-1"></use>
                    </mask>
                    <use id="Combined-Shape" fill="#0057E4" xlink:href="#path-1"></use>
                </g>
            </g>
        </g>
    </g>
</svg>