<svg xmlns="http://www.w3.org/2000/svg" width="30" height="30" viewBox="0 0 30 30">
    <g fill="none" fill-rule="evenodd">
        <g fill="#FFF">
            <g>
                <g>
                    <g>
                        <path d="M15 1.25c7.594 0 13.75 6.156 13.75 13.75S22.594 28.75 15 28.75 1.25 22.594 1.25 15 7.406 1.25 15 1.25zm0 2.5C8.787 3.75 3.75 8.787 3.75 15S8.787 26.25 15 26.25 26.25 21.213 26.25 15 21.213 3.75 15 3.75zm0 2.5c.69 0 1.25.56 1.25 1.25v6.982l3.384 3.384c.488.488.488 1.28 0 1.768s-1.28.488-1.768 0l-3.75-3.75c-.234-.235-.366-.552-.366-.884V7.5c0-.69.56-1.25 1.25-1.25z" transform="translate(-66 -582) translate(66 272) translate(0 141) translate(0 169)"/>
                    </g>
                </g>
            </g>
        </g>
    </g>
</svg>
