<?xml version="1.0" encoding="UTF-8"?>
<svg width="19px" height="22px" viewBox="0 0 19 22" version="1.1" xmlns="http://www.w3.org/2000/svg" xmlns:xlink="http://www.w3.org/1999/xlink">
    <title>ic_Add User Copy</title>
    <g id="New-Breakout-Room" stroke="none" stroke-width="1" fill="none" fill-rule="evenodd">
        <g id="Moderator---Raised-hands" transform="translate(-107.000000, -104.000000)" fill="#FFFFFF">
            <g id="Toast-Message" transform="translate(85.000000, 84.000000)">
                <g id="ic_Add-User-Copy" transform="translate(20.000000, 19.000000)">
                    <path d="M12.5286624,1 C13.1703946,1 13.6725234,1.45316057 13.7327828,2.06301199 L13.7388535,2.18698365 L13.7388535,11.0843567 L14.9490446,11.0843567 L14.9490446,2.98077896 C14.9490446,2.30939133 15.4747213,1.79379531 16.1592357,1.79379531 C16.8009679,1.79379531 17.3030967,2.24695588 17.363356,2.8568073 L17.3694268,2.98077896 L17.3694268,11.0748863 L18.5796178,11.0748863 L18.5796178,4.56095094 C18.5796178,3.88956331 19.1052946,3.37396729 19.7898089,3.37396729 C20.4315411,3.37396729 20.9336699,3.82712786 20.9939293,4.43697928 L21,4.56095094 L21,16.2341932 C21,19.9546451 17.8951035,23 14.1019108,23 C12.3874735,23 10.7438757,22.3978302 9.48015059,21.2653613 L9.2611465,21.0600236 L2.36305732,14.1755185 C1.87898089,13.7415276 1.87898089,12.9885348 2.36305732,12.5137414 C2.77603503,12.0706008 3.47233192,12.0410581 3.95690812,12.4251132 L4.05732484,12.5137414 L7.68789809,16.0746923 L7.68789809,3.37396729 C7.68789809,2.70257967 8.21357484,2.18698365 8.89808917,2.18698365 C9.53982136,2.18698365 10.0419502,2.64014421 10.1022095,3.24999564 L10.1082803,3.37396729 L10.1082803,11.0750836 L11.3184713,11.0750836 L11.3184713,2.18698365 C11.3184713,1.51559602 11.8441481,1 12.5286624,1 Z M19,13.074 L16.949,13.074 L16.9490446,13.0843567 L11.7388535,13.0843567 L11.738,13.075 L9.687,13.075 L9.687,18.66 L10.6616032,19.6321857 C11.499556,20.4540694 12.6228079,20.9332884 13.839769,20.9935315 L14.1019108,21 C16.7262119,21 18.8806704,18.9564237 18.9952107,16.444565 L19,16.2341932 L19,13.074 Z" id="Path"></path>
                </g>
            </g>
        </g>
    </g>
</svg>