<svg xmlns="http://www.w3.org/2000/svg" xmlns:xlink="http://www.w3.org/1999/xlink" width="35" height="35" viewBox="0 0 35 35">
  <defs>
    <linearGradient id="linear-gradient-ig" x1="1.167" y1="1" x2="0.304" y2="0.141" gradientUnits="objectBoundingBox">
      <stop offset="0" stop-color="#16ecd1"/>
      <stop offset="1" stop-color="#00c3ef"/>
    </linearGradient>
    <clipPath id="clip-path-ig">
      <rect id="Rectangle_40" data-name="Rectangle 40" width="35" height="35" transform="translate(1338 965)" stroke="#707070" stroke-width="1" fill="url(#linear-gradient-ig)"/>
    </clipPath>
    <linearGradient id="linear-gradient-2-ig" x1="1.149" y1="0.5" x2="0.293" y2="0.5" xlink:href="#linear-gradient-ig"/>
  </defs>
  <g id="Mask_Group_5" data-name="Mask Group 5" transform="translate(-1338 -965)" clip-path="url(#clip-path-ig)">
    <g id="Social_Icon_IG" data-name="Social Icon_IG" transform="translate(1338 965)">
      <path id="Path_21" data-name="Path 21" d="M17.5,35A17.5,17.5,0,1,1,35,17.5,17.522,17.522,0,0,1,17.5,35Zm0-33.346A15.828,15.828,0,1,0,33.328,17.482,15.84,15.84,0,0,0,17.5,1.654Zm5.9,8.75a1.3,1.3,0,1,0,1.3,1.3A1.306,1.306,0,0,0,23.4,10.4Zm-5.762,1.654A5.442,5.442,0,1,0,23.084,17.5,5.442,5.442,0,0,0,17.642,12.058Zm0,8.928A3.486,3.486,0,1,1,21.128,17.5,3.491,3.491,0,0,1,17.642,20.986Zm10.973-8a6.634,6.634,0,0,0-6.634-6.634h-8.75A6.634,6.634,0,0,0,6.6,12.983v8.75a6.634,6.634,0,0,0,6.634,6.634h8.75a6.634,6.634,0,0,0,6.634-6.634v-8.75Zm-2.081,8.75a4.562,4.562,0,0,1-4.553,4.553h-8.75a4.562,4.562,0,0,1-4.553-4.553v-8.75A4.562,4.562,0,0,1,13.232,8.43h8.75a4.562,4.562,0,0,1,4.553,4.553v8.75Z" fill="url(#linear-gradient-2-ig)"/>
    </g>
  </g>
</svg>
