<?xml version="1.0" encoding="UTF-8"?>
<svg width="20px" height="20px" viewBox="0 0 20 20" version="1.1" xmlns="http://www.w3.org/2000/svg" xmlns:xlink="http://www.w3.org/1999/xlink">
    <title>ic/instagram</title>
    <g id="Symbols" stroke="none" stroke-width="1" fill="none" fill-rule="evenodd">
        <g id="Footer" transform="translate(-1089.000000, -51.000000)" fill="#FFFFFF" fill-rule="nonzero">
            <g id="Combined-Shape" transform="translate(1087.000000, 49.000000)">
                <path d="M13.0646155,2.00084847 C14.2202288,2.00311642 14.7845812,2.01026149 15.2903943,2.02696883 L15.4908601,2.03417285 L15.4908601,2.03417285 L15.6926583,2.04246349 C15.8293182,2.0483676 15.9719173,2.05504053 16.1305575,2.06257113 C17.1934415,2.1094339 17.9203485,2.28131492 18.5571936,2.5275352 C19.2215152,2.77757169 19.8272202,3.17231791 20.3274458,3.68032853 C20.8394252,4.18055412 21.2302026,4.78229028 21.4842079,5.45439688 C21.7304282,6.08757835 21.9023092,6.81830157 21.949172,7.88118558 C21.959214,8.10979689 21.9672864,8.30502983 21.9737722,8.49741548 L21.9797433,8.68998282 C21.992508,9.14236903 21.9973297,9.63466164 21.9990738,10.5547187 L21.9999866,11.7218479 L21.9999866,11.7218479 L22.0000035,12.0038871 C22.0000035,12.1008837 21.9999886,12.1948497 21.9999575,12.2859264 L21.9992158,13.031425 C21.9971614,14.1566296 21.9907763,14.7271716 21.9764697,15.2200994 L21.970316,15.4142619 C21.962624,15.638594 21.9531026,15.8598755 21.9413869,16.1265887 C21.8945242,17.1894727 21.7224906,17.9163797 21.4764229,18.5533774 C20.9566584,19.8975906 19.8937744,20.9604746 18.5494086,21.4802391 C17.9163797,21.7264594 17.1856565,21.8983404 16.1227725,21.9452032 C15.8560593,21.956957 15.6347778,21.9664975 15.4104457,21.9741966 L15.2162832,21.9803536 C14.7233553,21.9946622 14.1528133,22.001004 13.0276088,22.0030401 L10.972525,22.0030401 C9.84730215,22.001004 9.27671678,21.9946622 8.78379091,21.9803536 L8.58963179,21.9741966 C8.36530686,21.9664975 8.14404442,21.956957 7.87736936,21.9452032 C6.81433275,21.8983404 6.08757835,21.7264594 5.45058067,21.4802391 C4.78625909,21.2302026 4.18055412,20.8354564 3.68032853,20.3274458 C3.17231791,19.8272202 2.77772429,19.225484 2.52371898,18.5533774 C2.2774987,17.9201959 2.10546509,17.1894727 2.05860232,16.1265887 C2.04688663,15.8598755 2.03736524,15.638594 2.02967324,15.4142619 L2.0235196,15.2200994 C2.00921297,14.7271716 2.00282782,14.1566296 2.00077342,13.031425 L2.00084847,10.9431588 C2.00326762,9.71050458 2.01123584,9.15057395 2.03043918,8.61684009 L2.03817818,8.41665512 C2.04508473,8.24875304 2.05315788,8.07551706 2.06257113,7.87721676 C2.1094339,6.81433275 2.28131492,6.08757835 2.5275352,5.45058067 C2.77772429,4.78625909 3.17231791,4.18055412 3.68032853,3.68032853 C4.18055412,3.16834909 4.78229028,2.77757169 5.45454948,2.52356638 C6.08757835,2.2774987 6.81830157,2.10546509 7.88118558,2.05860232 C8.79563085,2.01843423 9.176022,2.00406046 10.9763493,2.00077342 Z M13.0545629,3.81795047 L10.9703338,3.81795047 C9.68604845,3.82046598 9.15276657,3.82901276 8.59900389,3.84942041 L8.40145159,3.85712509 C8.26750813,3.86260253 8.12740586,3.8687746 7.9710949,3.87571723 C6.99812021,3.91876378 6.46660191,4.08285977 6.11490225,4.21963186 C5.68107829,4.37975903 5.2903009,4.63376434 4.96607773,4.96592513 C4.62994813,5.28648468 4.37594282,5.68107829 4.21566305,6.11490225 C4.07889096,6.46660191 3.91479497,6.9941514 3.87190101,7.9710949 C3.83010958,8.90543282 3.81629967,9.26240919 3.81374674,11.2047545 L3.81374674,12.8184645 C3.81629967,14.7601832 3.83010958,15.1145363 3.87190101,16.052402 C3.91479497,17.0253767 4.07889096,17.556895 4.21566305,17.9085947 C4.37594282,18.342266 4.62994813,18.7330434 4.96210892,19.0574192 C5.28251587,19.38958 5.67726208,19.6435853 6.11093343,19.8038651 C6.46263309,19.9406372 6.99018258,20.1047332 7.96712608,20.1476271 C8.94053605,20.1911599 9.28733781,20.2043307 11.4521449,20.2060431 L12.5635065,20.2060431 C14.7278288,20.2043307 15.0714897,20.1911599 16.0484332,20.1476271 C17.0215605,20.1047332 17.5529262,19.9406372 17.9046259,19.8038651 C18.77609,19.4677355 19.4677355,18.77609 19.8038651,17.9046259 C19.9406372,17.5529262 20.1047332,17.0253767 20.1477797,16.0484332 C20.1581937,15.8139668 20.1668738,15.6161659 20.1740765,15.4210234 L20.1807962,15.2255076 C20.1953707,14.7654939 20.2023662,14.2582375 20.2050388,13.2717224 L20.205929,12.8183284 C20.2060364,12.7374524 20.2061241,12.6538165 20.2061934,12.567263 L20.2061934,11.4560217 C20.2061241,11.3694488 20.2060364,11.2857889 20.205929,11.2048851 L20.2050388,10.7512778 C20.2023662,9.76416553 20.1953707,9.25566592 20.1807962,8.79482708 L20.1740765,8.5989863 C20.1668738,8.4035507 20.1581937,8.20556134 20.1477797,7.9710949 C20.1047332,6.99796761 19.9406372,6.46660191 19.8038651,6.11490225 C19.6435853,5.68107829 19.38958,5.2903009 19.0574192,4.96592513 C18.7370123,4.63376434 18.342266,4.37975903 17.9085947,4.21963186 C17.556895,4.08285977 17.0293455,3.91876378 16.052402,3.87571723 C15.1568649,3.83579709 14.7945689,3.8213538 13.0545629,3.81795047 Z M12.0038871,6.86516434 C14.8409921,6.86516434 17.14261,9.16678218 17.14261,12.0038871 C17.14261,14.8409921 14.8409921,17.14261 12.0038871,17.14261 C9.16693478,17.14261 6.86516434,14.8409921 6.86516434,12.0038871 C6.86516434,9.16678218 9.16693478,6.86516434 12.0038871,6.86516434 Z M12.0038871,8.6705254 C10.1634171,8.6705254 8.6705254,10.1632646 8.6705254,12.0038871 C8.6705254,13.8445097 10.1634171,15.3372489 12.0038871,15.3372489 C13.8445097,15.3372489 15.3372489,13.8445097 15.3372489,12.0038871 C15.3372489,10.1632646 13.8445097,8.6705254 12.0038871,8.6705254 Z M17.3457837,5.46233451 C18.0084261,5.46233451 18.5455924,5.99934816 18.5455924,6.66199061 C18.5455924,7.32448042 18.0084261,7.86164671 17.3457837,7.86164671 C16.6832938,7.86164671 16.1461276,7.32448042 16.1461276,6.66199061 C16.1461276,5.99934816 16.6832938,5.46233451 17.3457837,5.46233451 Z"></path>
            </g>
        </g>
    </g>
</svg>