<svg xmlns="http://www.w3.org/2000/svg" xmlns:xlink="http://www.w3.org/1999/xlink" width="175.108" height="120.419" viewBox="0 0 175.108 120.419">
  <defs>
    <clipPath id="clip-path-lt">
      <rect id="Rectangle_51" data-name="Rectangle 51" width="175.108" height="120.419" fill="none"/>
    </clipPath>
    <linearGradient id="linear-gradient-lt" x1="0.113" y1="-0.205" x2="0.887" y2="1.205" gradientUnits="objectBoundingBox">
      <stop offset="0.226" stop-color="#fafcff"/>
      <stop offset="1" stop-color="#edf5ff"/>
    </linearGradient>
    <filter id="Rectangle_45" x="43.523" y="27.266" width="39.174" height="30.949" filterUnits="userSpaceOnUse">
      <feOffset dx="1.714" dy="1.714" input="SourceAlpha"/>
      <feGaussianBlur result="blur"/>
      <feFlood flood-color="#81acea" flood-opacity="0.4"/>
      <feComposite operator="in" in2="blur"/>
      <feComposite in="SourceGraphic"/>
    </filter>
    <filter id="Rectangle_46" x="87.767" y="27.266" width="39.174" height="30.949" filterUnits="userSpaceOnUse">
      <feOffset dx="1.714" dy="1.714" input="SourceAlpha"/>
      <feGaussianBlur result="blur-2"/>
      <feFlood flood-color="#81acea" flood-opacity="0.4"/>
      <feComposite operator="in" in2="blur-2"/>
      <feComposite in="SourceGraphic"/>
    </filter>
    <filter id="Rectangle_47" x="132.011" y="27.266" width="39.174" height="30.949" filterUnits="userSpaceOnUse">
      <feOffset dx="1.714" dy="1.714" input="SourceAlpha"/>
      <feGaussianBlur result="blur-3"/>
      <feFlood flood-color="#81acea" flood-opacity="0.4"/>
      <feComposite operator="in" in2="blur-3"/>
      <feComposite in="SourceGraphic"/>
    </filter>
    <filter id="Rectangle_48" x="43.523" y="63.018" width="39.174" height="30.949" filterUnits="userSpaceOnUse">
      <feOffset dx="1.714" dy="1.714" input="SourceAlpha"/>
      <feGaussianBlur result="blur-4"/>
      <feFlood flood-color="#81acea" flood-opacity="0.4"/>
      <feComposite operator="in" in2="blur-4"/>
      <feComposite in="SourceGraphic"/>
    </filter>
    <filter id="Rectangle_49" x="87.767" y="63.018" width="39.174" height="30.949" filterUnits="userSpaceOnUse">
      <feOffset dx="1.714" dy="1.714" input="SourceAlpha"/>
      <feGaussianBlur result="blur-5"/>
      <feFlood flood-color="#81acea" flood-opacity="0.4"/>
      <feComposite operator="in" in2="blur-5"/>
      <feComposite in="SourceGraphic"/>
    </filter>
    <filter id="Rectangle_50" x="132.011" y="63.018" width="39.174" height="30.949" filterUnits="userSpaceOnUse">
      <feOffset dx="1.714" dy="1.714" input="SourceAlpha"/>
      <feGaussianBlur result="blur-6"/>
      <feFlood flood-color="#81acea" flood-opacity="0.4"/>
      <feComposite operator="in" in2="blur-6"/>
      <feComposite in="SourceGraphic"/>
    </filter>
  </defs>
  <g id="Group_39" data-name="Group 39" transform="translate(52.902 -212.757)">
    <g id="Group_38" data-name="Group 38" transform="translate(-52.902 212.757)" clip-path="url(#clip-path-lt)">
      <g id="Group_37" data-name="Group 37" transform="translate(19.942 14.772)">
        <g id="Group_24" data-name="Group 24">
          <rect id="Rectangle_41" data-name="Rectangle 41" width="142.564" height="2.372" transform="translate(15.263 87.145)" fill="#5c9bff" opacity="0.5"/>
          <path id="Path_22" data-name="Path 22" d="M-28.428,431.517a7.374,7.374,0,0,0,7.374,7.374H137.289a7.374,7.374,0,0,0,7.374-7.374Z" transform="translate(28.428 -342)" fill="#e1e4ea"/>
          <path id="Path_23" data-name="Path 23" d="M84.379,433.839H55.594a6.858,6.858,0,0,1-5.143-2.322H89.523A6.858,6.858,0,0,1,84.379,433.839Z" transform="translate(16.559 -342)" fill="#535b7c"/>
          <rect id="Rectangle_42" data-name="Rectangle 42" width="145.219" height="87.694" rx="4.594" transform="translate(13.936)" fill="#e1e4ea"/>
          <rect id="Rectangle_43" data-name="Rectangle 43" width="137.24" height="75.329" transform="translate(17.926 7.969)" fill="url(#linear-gradient-lt)"/>
          <rect id="Rectangle_44" data-name="Rectangle 44" width="0.758" height="75.311" transform="translate(17.926 7.969)" fill="#5c9bff" opacity="0.5"/>
          <path id="Path_24" data-name="Path 24" d="M70.246,330.682a1.363,1.363,0,1,1-1.363-1.363A1.364,1.364,0,0,1,70.246,330.682Z" transform="translate(13.991 -326.623)" fill="#fff" opacity="0.4"/>
        </g>
        <g id="Group_25" data-name="Group 25" transform="translate(23.581 12.494)">
          <g transform="matrix(1, 0, 0, 1, -43.52, -27.27)" filter="url(#Rectangle_45)">
            <rect id="Rectangle_45-2" data-name="Rectangle 45" width="37.46" height="29.235" rx="6.885" transform="translate(43.52 27.27)" fill="#fff"/>
          </g>
          <path id="Path_25" data-name="Path 25" d="M33.308,367.049H3.885a.9.9,0,0,1-.985-.769h0a.9.9,0,0,1,.985-.77H33.308a.9.9,0,0,1,.985.77h0A.9.9,0,0,1,33.308,367.049Z" transform="translate(0.133 -344.563)" fill="#e1e4ea"/>
          <path id="Path_26" data-name="Path 26" d="M33.308,370.315H3.885a.9.9,0,0,1-.985-.769h0a.9.9,0,0,1,.985-.769H33.308a.9.9,0,0,1,.985.769h0A.9.9,0,0,1,33.308,370.315Z" transform="translate(0.133 -345.054)" fill="#e1e4ea"/>
        </g>
        <g id="Group_26" data-name="Group 26" transform="translate(67.825 12.494)">
          <g transform="matrix(1, 0, 0, 1, -87.77, -27.27)" filter="url(#Rectangle_46)">
            <rect id="Rectangle_46-2" data-name="Rectangle 46" width="37.46" height="29.235" rx="6.885" transform="translate(87.77 27.27)" fill="#fff"/>
          </g>
          <path id="Path_27" data-name="Path 27" d="M85.389,367.049H55.966a.9.9,0,0,1-.985-.769h0a.9.9,0,0,1,.985-.77H85.389a.9.9,0,0,1,.985.77h0A.9.9,0,0,1,85.389,367.049Z" transform="translate(-51.948 -344.563)" fill="#e1e4ea"/>
          <path id="Path_28" data-name="Path 28" d="M85.389,370.315H55.966a.9.9,0,0,1-.985-.769h0a.9.9,0,0,1,.985-.769H85.389a.9.9,0,0,1,.985.769h0A.9.9,0,0,1,85.389,370.315Z" transform="translate(-51.948 -345.054)" fill="#e1e4ea"/>
        </g>
        <g id="Group_27" data-name="Group 27" transform="translate(112.069 12.494)">
          <g transform="matrix(1, 0, 0, 1, -132.01, -27.27)" filter="url(#Rectangle_47)">
            <rect id="Rectangle_47-2" data-name="Rectangle 47" width="37.46" height="29.235" rx="6.885" transform="translate(132.01 27.27)" fill="#fff"/>
          </g>
          <path id="Path_29" data-name="Path 29" d="M137.47,367.049H108.047a.9.9,0,0,1-.985-.769h0a.9.9,0,0,1,.985-.77H137.47a.9.9,0,0,1,.985.77h0A.9.9,0,0,1,137.47,367.049Z" transform="translate(-104.029 -344.563)" fill="#e1e4ea"/>
          <path id="Path_30" data-name="Path 30" d="M137.47,370.315H108.047a.9.9,0,0,1-.985-.769h0a.9.9,0,0,1,.985-.769H137.47a.9.9,0,0,1,.985.769h0A.9.9,0,0,1,137.47,370.315Z" transform="translate(-104.029 -345.054)" fill="#e1e4ea"/>
        </g>
        <g id="Group_28" data-name="Group 28" transform="translate(23.581 48.246)">
          <g transform="matrix(1, 0, 0, 1, -43.52, -63.02)" filter="url(#Rectangle_48)">
            <rect id="Rectangle_48-2" data-name="Rectangle 48" width="37.46" height="29.235" rx="6.885" transform="translate(43.52 63.02)" fill="#fff"/>
          </g>
          <path id="Path_31" data-name="Path 31" d="M33.308,409.134H3.885a.9.9,0,0,1-.985-.77h0a.9.9,0,0,1,.985-.769H33.308a.9.9,0,0,1,.985.769h0A.9.9,0,0,1,33.308,409.134Z" transform="translate(0.133 -386.647)" fill="#e1e4ea"/>
          <path id="Path_32" data-name="Path 32" d="M33.308,412.4H3.885a.9.9,0,0,1-.985-.769h0a.9.9,0,0,1,.985-.769H33.308a.9.9,0,0,1,.985.769h0A.9.9,0,0,1,33.308,412.4Z" transform="translate(0.133 -387.138)" fill="#e1e4ea"/>
        </g>
        <g id="Group_29" data-name="Group 29" transform="translate(67.825 48.246)">
          <g transform="matrix(1, 0, 0, 1, -87.77, -63.02)" filter="url(#Rectangle_49)">
            <rect id="Rectangle_49-2" data-name="Rectangle 49" width="37.46" height="29.235" rx="6.885" transform="translate(87.77 63.02)" fill="#fff"/>
          </g>
          <path id="Path_33" data-name="Path 33" d="M85.389,409.134H55.966a.9.9,0,0,1-.985-.77h0a.9.9,0,0,1,.985-.769H85.389a.9.9,0,0,1,.985.769h0A.9.9,0,0,1,85.389,409.134Z" transform="translate(-51.948 -386.647)" fill="#e1e4ea"/>
          <path id="Path_34" data-name="Path 34" d="M85.389,412.4H55.966a.9.9,0,0,1-.985-.769h0a.9.9,0,0,1,.985-.769H85.389a.9.9,0,0,1,.985.769h0A.9.9,0,0,1,85.389,412.4Z" transform="translate(-51.948 -387.138)" fill="#e1e4ea"/>
        </g>
        <g id="Group_30" data-name="Group 30" transform="translate(112.069 48.246)">
          <g transform="matrix(1, 0, 0, 1, -132.01, -63.02)" filter="url(#Rectangle_50)">
            <rect id="Rectangle_50-2" data-name="Rectangle 50" width="37.46" height="29.235" rx="6.885" transform="translate(132.01 63.02)" fill="#fff"/>
          </g>
          <path id="Path_35" data-name="Path 35" d="M137.47,409.134H108.047a.9.9,0,0,1-.985-.77h0a.9.9,0,0,1,.985-.769H137.47a.9.9,0,0,1,.985.769h0A.9.9,0,0,1,137.47,409.134Z" transform="translate(-104.029 -386.647)" fill="#e1e4ea"/>
          <path id="Path_36" data-name="Path 36" d="M137.47,412.4H108.047a.9.9,0,0,1-.985-.769h0a.9.9,0,0,1,.985-.769H137.47a.9.9,0,0,1,.985.769h0A.9.9,0,0,1,137.47,412.4Z" transform="translate(-104.029 -387.138)" fill="#e1e4ea"/>
        </g>
        <g id="Group_31" data-name="Group 31" transform="translate(27.658 21.378)" opacity="0.8">
          <path id="Path_37" data-name="Path 37" d="M5.394,352.13H4.129v-.757H7.552v.757H6.287v3.447H5.394Z" transform="translate(-4.129 -351.319)" fill="#131b44"/>
          <path id="Path_38" data-name="Path 38" d="M12.45,355.577h-.974l-.7-1.341a.56.56,0,0,0-.206-.224.617.617,0,0,0-.3-.068h-.44v1.634H8.946v-4.2H10.8a1.567,1.567,0,0,1,1.074.325,1.193,1.193,0,0,1,.363.939,1.254,1.254,0,0,1-.254.8,1.213,1.213,0,0,1-.719.423.891.891,0,0,1,.532.471ZM11.225,353.1a.649.649,0,0,0,0-.879.892.892,0,0,0-.556-.138H9.817v1.157h.853A.885.885,0,0,0,11.225,353.1Z" transform="translate(-4.854 -351.319)" fill="#131b44"/>
          <path id="Path_39" data-name="Path 39" d="M16.453,354.646H14.576l-.384.93h-.9l1.855-4.2h.715l1.855,4.2h-.882Zm-.291-.7-.647-1.574-.646,1.574Z" transform="translate(-5.508 -351.319)" fill="#131b44"/>
          <path id="Path_40" data-name="Path 40" d="M19.136,351.373h.893v4.2h-.893Z" transform="translate(-6.387 -351.319)" fill="#131b44"/>
          <path id="Path_41" data-name="Path 41" d="M24.87,351.373v4.2h-.664L22.2,352.9v2.677h-.83v-4.2h.658l2.01,2.666v-2.666Z" transform="translate(-6.723 -351.319)" fill="#131b44"/>
          <path id="Path_42" data-name="Path 42" d="M26.67,351.373h.893v4.2H26.67Z" transform="translate(-7.521 -351.319)" fill="#131b44"/>
          <path id="Path_43" data-name="Path 43" d="M32.4,351.373v4.2H31.74L29.731,352.9v2.677H28.9v-4.2h.658l2.01,2.666v-2.666Z" transform="translate(-7.856 -351.319)" fill="#131b44"/>
          <path id="Path_44" data-name="Path 44" d="M37.653,353.248V355.3a2.743,2.743,0,0,1-.686.233,3.956,3.956,0,0,1-.813.083,2.268,2.268,0,0,1-1.111-.259,1.757,1.757,0,0,1-.721-.746,2.76,2.76,0,0,1,0-2.295,1.765,1.765,0,0,1,.714-.748,2.158,2.158,0,0,1,1.081-.263,2.552,2.552,0,0,1,.81.126,1.743,1.743,0,0,1,.621.346l-.28.662a2.036,2.036,0,0,0-.547-.3,1.752,1.752,0,0,0-.575-.093q-1.169,0-1.168,1.414a1.648,1.648,0,0,0,.3,1.085,1.138,1.138,0,0,0,.917.358,2.456,2.456,0,0,0,.658-.09v-.924h-.79v-.643Z" transform="translate(-8.634 -351.309)" fill="#131b44"/>
        </g>
        <g id="Group_32" data-name="Group 32" transform="translate(76.944 21.378)" opacity="0.8">
          <path id="Path_45" data-name="Path 45" d="M62.144,351.373h1.568a2.392,2.392,0,0,1,1.133.251,1.7,1.7,0,0,1,.727.721,2.358,2.358,0,0,1,.252,1.127,2.406,2.406,0,0,1-.249,1.13,1.689,1.689,0,0,1-.725.724,2.42,2.42,0,0,1-1.139.251H62.144Zm1.505,3.452q1.288,0,1.288-1.352t-1.288-1.347h-.613v2.7Z" transform="translate(-62.144 -351.319)" fill="#131b44"/>
          <path id="Path_46" data-name="Path 46" d="M67.521,351.373H70.3v.721H68.392v.985h1.8v.72h-1.8v1.055H70.3v.722H67.521Z" transform="translate(-62.953 -351.319)" fill="#131b44"/>
          <path id="Path_47" data-name="Path 47" d="M75.762,351.373v4.2h-.784v-2.493l-.927,1.8h-.573l-.927-1.777v2.469h-.784v-4.2h.7l1.3,2.57,1.3-2.57Z" transform="translate(-63.592 -351.319)" fill="#131b44"/>
          <path id="Path_48" data-name="Path 48" d="M78.453,355.355a1.763,1.763,0,0,1-.684-.752,2.82,2.82,0,0,1,0-2.283,1.74,1.74,0,0,1,.684-.748,2.2,2.2,0,0,1,2.09,0,1.745,1.745,0,0,1,.684.748,2.829,2.829,0,0,1,0,2.283,1.769,1.769,0,0,1-.684.752,2.192,2.192,0,0,1-2.09,0Zm1.838-.827a2.117,2.117,0,0,0,0-2.131,1.043,1.043,0,0,0-1.589,0,2.136,2.136,0,0,0,0,2.131,1.031,1.031,0,0,0,1.583,0Z" transform="translate(-64.459 -351.309)" fill="#131b44"/>
          <path id="Path_49" data-name="Path 49" d="M83.705,355.492a2.038,2.038,0,0,1-.7-.355l.286-.661a2.179,2.179,0,0,0,1.311.423,1.1,1.1,0,0,0,.581-.128.4.4,0,0,0,.2-.354.351.351,0,0,0-.186-.316,2.415,2.415,0,0,0-.661-.221,3.568,3.568,0,0,1-.85-.274,1.124,1.124,0,0,1-.464-.4,1.086,1.086,0,0,1-.146-.581,1.184,1.184,0,0,1,.2-.68,1.374,1.374,0,0,1,.57-.467,2,2,0,0,1,.847-.171,2.6,2.6,0,0,1,.827.133,1.663,1.663,0,0,1,.633.352l-.286.661a1.9,1.9,0,0,0-1.168-.423.945.945,0,0,0-.55.14.445.445,0,0,0-.2.384.361.361,0,0,0,.077.236.635.635,0,0,0,.258.164,3.941,3.941,0,0,0,.512.15,2.763,2.763,0,0,1,1.119.459.948.948,0,0,1,.341.775,1.123,1.123,0,0,1-.441.939,1.957,1.957,0,0,1-1.231.343A3.011,3.011,0,0,1,83.705,355.492Z" transform="translate(-65.282 -351.309)" fill="#131b44"/>
        </g>
        <g id="Group_33" data-name="Group 33" transform="translate(114.334 21.378)" opacity="0.8">
          <path id="Path_50" data-name="Path 50" d="M112.335,351.373l-1.437,4.2h-.715l-.933-2.784-.945,2.784h-.716l-1.431-4.2h.9l.922,2.9.98-2.9h.624l.944,2.933.957-2.933Z" transform="translate(-106.157 -351.319)" fill="#131b44"/>
          <path id="Path_51" data-name="Path 51" d="M114.258,351.373h2.782v.721h-1.912v.985h1.8v.72h-1.8v1.055h1.912v.722h-2.782Z" transform="translate(-107.376 -351.319)" fill="#131b44"/>
          <path id="Path_52" data-name="Path 52" d="M121.624,353.773a1.082,1.082,0,0,1,.192.653,1.033,1.033,0,0,1-.375.84,1.576,1.576,0,0,1-1.033.31H118.49v-4.2h1.86a1.568,1.568,0,0,1,1,.292.963.963,0,0,1,.37.8,1,1,0,0,1-.169.576.961.961,0,0,1-.466.361A1.006,1.006,0,0,1,121.624,353.773Zm-2.264-.689h.842a.839.839,0,0,0,.506-.122.436.436,0,0,0,.164-.373.448.448,0,0,0-.164-.384.851.851,0,0,0-.506-.122h-.842Zm1.46,1.658a.485.485,0,0,0,.161-.406.5.5,0,0,0-.161-.411.813.813,0,0,0-.516-.132h-.945v1.074h.945A.85.85,0,0,0,120.82,354.742Z" transform="translate(-108.013 -351.319)" fill="#131b44"/>
          <path id="Path_53" data-name="Path 53" d="M123.369,351.373h.893v4.2h-.893Z" transform="translate(-108.747 -351.319)" fill="#131b44"/>
          <path id="Path_54" data-name="Path 54" d="M129.1,351.373v4.2h-.664l-2.01-2.677v2.677h-.83v-4.2h.658l2.01,2.666v-2.666Z" transform="translate(-109.082 -351.319)" fill="#131b44"/>
          <path id="Path_55" data-name="Path 55" d="M133.517,354.646H131.64l-.384.93h-.9l1.855-4.2h.715l1.855,4.2H133.9Zm-.291-.7-.647-1.574-.646,1.574Z" transform="translate(-109.798 -351.319)" fill="#131b44"/>
          <path id="Path_56" data-name="Path 56" d="M139.7,355.577h-.974l-.7-1.341a.567.567,0,0,0-.206-.224.611.611,0,0,0-.3-.068h-.441v1.634H136.2v-4.2h1.855a1.564,1.564,0,0,1,1.074.325,1.194,1.194,0,0,1,.364.939,1.249,1.249,0,0,1-.255.8,1.21,1.21,0,0,1-.719.423.894.894,0,0,1,.533.471Zm-1.225-2.477a.649.649,0,0,0,0-.879.892.892,0,0,0-.556-.138h-.853v1.157h.853A.885.885,0,0,0,138.478,353.1Z" transform="translate(-110.678 -351.319)" fill="#131b44"/>
          <path id="Path_57" data-name="Path 57" d="M141.628,355.492a2.046,2.046,0,0,1-.7-.355l.286-.661a2.181,2.181,0,0,0,1.311.423,1.1,1.1,0,0,0,.581-.128.4.4,0,0,0,.2-.354.351.351,0,0,0-.186-.316,2.4,2.4,0,0,0-.661-.221,3.581,3.581,0,0,1-.85-.274,1.124,1.124,0,0,1-.464-.4,1.086,1.086,0,0,1-.146-.581,1.179,1.179,0,0,1,.2-.68,1.364,1.364,0,0,1,.57-.467,1.994,1.994,0,0,1,.847-.171,2.6,2.6,0,0,1,.827.133,1.652,1.652,0,0,1,.632.352l-.286.661a1.9,1.9,0,0,0-1.168-.423.949.949,0,0,0-.55.14.444.444,0,0,0-.2.384.36.36,0,0,0,.076.236.647.647,0,0,0,.258.164,3.942,3.942,0,0,0,.512.15,2.773,2.773,0,0,1,1.12.459.948.948,0,0,1,.34.775,1.121,1.121,0,0,1-.441.939,1.953,1.953,0,0,1-1.23.343A3.012,3.012,0,0,1,141.628,355.492Z" transform="translate(-111.388 -351.309)" fill="#131b44"/>
        </g>
        <g id="Group_34" data-name="Group 34" transform="translate(28.932 56.965)" opacity="0.8">
          <path id="Path_58" data-name="Path 58" d="M5.628,393.262H8.41v.722H6.5v.984H8.3v.721H6.5v1.055H8.41v.722H5.628Z" transform="translate(-5.628 -393.209)" fill="#131b44"/>
          <path id="Path_59" data-name="Path 59" d="M9.792,395.916h1.77v.7H9.792Z" transform="translate(-6.255 -393.609)" fill="#131b44"/>
          <path id="Path_60" data-name="Path 60" d="M16.161,395.663a1.082,1.082,0,0,1,.192.652,1.036,1.036,0,0,1-.375.841,1.579,1.579,0,0,1-1.034.31H13.027v-4.2h1.86a1.569,1.569,0,0,1,1,.293.964.964,0,0,1,.369.8,1,1,0,0,1-.168.574.962.962,0,0,1-.467.361A1.009,1.009,0,0,1,16.161,395.663Zm-2.264-.689h.842a.853.853,0,0,0,.506-.121.437.437,0,0,0,.163-.374.449.449,0,0,0-.163-.384.846.846,0,0,0-.506-.122H13.9Zm1.459,1.657a.482.482,0,0,0,.161-.405.5.5,0,0,0-.161-.412.814.814,0,0,0-.515-.131H13.9v1.074h.945A.839.839,0,0,0,15.356,396.631Z" transform="translate(-6.741 -393.209)" fill="#131b44"/>
          <path id="Path_61" data-name="Path 61" d="M18.7,397.245a1.759,1.759,0,0,1-.684-.752,2.831,2.831,0,0,1,0-2.284,1.743,1.743,0,0,1,.684-.748,2.211,2.211,0,0,1,2.09,0,1.748,1.748,0,0,1,.684.748,2.831,2.831,0,0,1,0,2.284,1.764,1.764,0,0,1-.684.752,2.192,2.192,0,0,1-2.09,0Zm1.838-.826a2.123,2.123,0,0,0,0-2.132,1.046,1.046,0,0,0-1.589,0,2.139,2.139,0,0,0,0,2.132,1.032,1.032,0,0,0,1.583,0Z" transform="translate(-7.455 -393.2)" fill="#131b44"/>
          <path id="Path_62" data-name="Path 62" d="M24.235,397.245a1.76,1.76,0,0,1-.685-.752,2.831,2.831,0,0,1,0-2.284,1.745,1.745,0,0,1,.685-.748,2.211,2.211,0,0,1,2.09,0,1.748,1.748,0,0,1,.684.748,2.831,2.831,0,0,1,0,2.284,1.764,1.764,0,0,1-.684.752,2.192,2.192,0,0,1-2.09,0Zm1.838-.826a2.12,2.12,0,0,0,0-2.132,1.045,1.045,0,0,0-1.589,0,2.142,2.142,0,0,0,0,2.132,1.033,1.033,0,0,0,1.584,0Z" transform="translate(-8.289 -393.2)" fill="#131b44"/>
          <path id="Path_63" data-name="Path 63" d="M31.63,397.466l-1.752-1.939v1.939h-.893v-4.2h.893v1.849l1.694-1.849h1.054l-1.878,2.01,1.952,2.194Z" transform="translate(-9.143 -393.209)" fill="#131b44"/>
          <path id="Path_64" data-name="Path 64" d="M34.183,397.382a2.06,2.06,0,0,1-.7-.354l.286-.662a2.183,2.183,0,0,0,1.312.423,1.091,1.091,0,0,0,.581-.128.4.4,0,0,0,.2-.355.352.352,0,0,0-.185-.316,2.411,2.411,0,0,0-.662-.221,3.547,3.547,0,0,1-.85-.274,1.131,1.131,0,0,1-.464-.4,1.088,1.088,0,0,1-.145-.581,1.178,1.178,0,0,1,.2-.68,1.364,1.364,0,0,1,.57-.468,1.981,1.981,0,0,1,.847-.17,2.652,2.652,0,0,1,.827.131,1.7,1.7,0,0,1,.633.352l-.286.663a1.9,1.9,0,0,0-1.168-.424.945.945,0,0,0-.55.14.442.442,0,0,0-.2.385.354.354,0,0,0,.077.235.647.647,0,0,0,.257.164,3.737,3.737,0,0,0,.512.149,2.809,2.809,0,0,1,1.12.459.952.952,0,0,1,.341.776,1.124,1.124,0,0,1-.441.939,1.962,1.962,0,0,1-1.231.343A3.045,3.045,0,0,1,34.183,397.382Z" transform="translate(-9.819 -393.2)" fill="#131b44"/>
        </g>
        <g id="Group_35" data-name="Group 35" transform="translate(74.135 53.045)" opacity="0.8">
          <path id="Path_65" data-name="Path 65" d="M63.189,388.585l-1.815,4.2h-.715l-1.821-4.2h.928l1.259,3.046,1.26-3.046Z" transform="translate(-58.838 -388.585)" fill="#131b44"/>
          <path id="Path_66" data-name="Path 66" d="M64.559,388.585h.894v4.2h-.894Z" transform="translate(-59.699 -388.585)" fill="#131b44"/>
          <path id="Path_67" data-name="Path 67" d="M70.293,392.788H69.32l-.7-1.341a.557.557,0,0,0-.206-.223.606.606,0,0,0-.3-.069h-.44v1.634H66.79v-4.2h1.855a1.566,1.566,0,0,1,1.074.325,1.2,1.2,0,0,1,.364.939,1.245,1.245,0,0,1-.255.8,1.211,1.211,0,0,1-.719.424.9.9,0,0,1,.533.471Zm-1.225-2.477a.649.649,0,0,0,0-.879.892.892,0,0,0-.556-.138H67.66v1.157h.853A.88.88,0,0,0,69.068,390.31Z" transform="translate(-60.035 -388.585)" fill="#131b44"/>
          <path id="Path_68" data-name="Path 68" d="M72.49,389.341H71.224v-.756h3.424v.756H73.383v3.447H72.49Z" transform="translate(-60.702 -388.585)" fill="#131b44"/>
          <path id="Path_69" data-name="Path 69" d="M76.459,392.385a1.832,1.832,0,0,1-.444-1.332v-2.468h.877v2.509a1.159,1.159,0,0,0,.22.763.907.907,0,0,0,1.279,0,1.147,1.147,0,0,0,.223-.759v-2.509h.876v2.468a1.827,1.827,0,0,1-.447,1.329,2.049,2.049,0,0,1-2.584,0Z" transform="translate(-61.423 -388.585)" fill="#131b44"/>
          <path id="Path_70" data-name="Path 70" d="M83.839,391.857H81.961l-.383.93h-.9l1.855-4.2h.715l1.855,4.2h-.882Zm-.292-.7-.647-1.573-.646,1.573Z" transform="translate(-62.124 -388.585)" fill="#131b44"/>
          <path id="Path_71" data-name="Path 71" d="M86.521,388.585h.893v3.445h1.8v.758h-2.7Z" transform="translate(-63.003 -388.585)" fill="#131b44"/>
          <path id="Path_72" data-name="Path 72" d="M61.059,396.383h2.782v.721H61.929v.984h1.8v.721h-1.8v1.055h1.912v.722H61.059Z" transform="translate(-59.172 -389.758)" fill="#131b44"/>
          <path id="Path_73" data-name="Path 73" d="M69.089,396.383l-1.815,4.2h-.715l-1.821-4.2h.928l1.259,3.047,1.26-3.047Z" transform="translate(-59.726 -389.758)" fill="#131b44"/>
          <path id="Path_74" data-name="Path 74" d="M70.459,396.383h2.783v.721H71.33v.984h1.8v.721h-1.8v1.055h1.912v.722H70.459Z" transform="translate(-60.587 -389.758)" fill="#131b44"/>
          <path id="Path_75" data-name="Path 75" d="M78.2,396.383v4.2h-.664l-2.01-2.678v2.678h-.83v-4.2h.658l2.01,2.665v-2.665Z" transform="translate(-61.223 -389.758)" fill="#131b44"/>
          <path id="Path_76" data-name="Path 76" d="M80.869,397.14H79.6v-.757h3.424v.757H81.763v3.447h-.894Z" transform="translate(-61.963 -389.758)" fill="#131b44"/>
          <path id="Path_77" data-name="Path 77" d="M84.789,400.5a2.06,2.06,0,0,1-.7-.354l.286-.662a2.183,2.183,0,0,0,1.312.423,1.092,1.092,0,0,0,.581-.128.4.4,0,0,0,.2-.355.352.352,0,0,0-.185-.316,2.417,2.417,0,0,0-.662-.22,3.581,3.581,0,0,1-.85-.274,1.13,1.13,0,0,1-.464-.4,1.088,1.088,0,0,1-.145-.581,1.178,1.178,0,0,1,.2-.68,1.359,1.359,0,0,1,.57-.468,1.994,1.994,0,0,1,.847-.17,2.652,2.652,0,0,1,.827.131,1.7,1.7,0,0,1,.633.352l-.286.663a1.9,1.9,0,0,0-1.168-.424.945.945,0,0,0-.55.14.443.443,0,0,0-.2.385.354.354,0,0,0,.077.235.637.637,0,0,0,.257.164,3.742,3.742,0,0,0,.512.149,2.809,2.809,0,0,1,1.12.459.953.953,0,0,1,.341.776,1.123,1.123,0,0,1-.441.938,1.957,1.957,0,0,1-1.231.343A3.012,3.012,0,0,1,84.789,400.5Z" transform="translate(-62.637 -389.749)" fill="#131b44"/>
        </g>
        <g id="Group_36" data-name="Group 36" transform="translate(123.064 56.965)" opacity="0.8">
          <path id="Path_78" data-name="Path 78" d="M119.569,395.663a1.082,1.082,0,0,1,.192.652,1.037,1.037,0,0,1-.375.841,1.575,1.575,0,0,1-1.033.31h-1.918v-4.2H118.3a1.565,1.565,0,0,1,1,.293.963.963,0,0,1,.37.8.992.992,0,0,1-.169.574.956.956,0,0,1-.466.361A1.012,1.012,0,0,1,119.569,395.663Zm-2.264-.689h.841a.854.854,0,0,0,.507-.121.437.437,0,0,0,.163-.374.449.449,0,0,0-.163-.384.847.847,0,0,0-.507-.122H117.3Zm1.459,1.657a.482.482,0,0,0,.161-.405.5.5,0,0,0-.161-.412.819.819,0,0,0-.516-.131H117.3v1.074h.944A.844.844,0,0,0,118.764,396.631Z" transform="translate(-116.434 -393.209)" fill="#131b44"/>
          <path id="Path_79" data-name="Path 79" d="M121.313,393.262h.893v3.447h1.8v.758h-2.7Z" transform="translate(-117.168 -393.209)" fill="#131b44"/>
          <path id="Path_80" data-name="Path 80" d="M125.863,397.245a1.759,1.759,0,0,1-.684-.752,2.832,2.832,0,0,1,0-2.284,1.743,1.743,0,0,1,.684-.748,2.211,2.211,0,0,1,2.09,0,1.748,1.748,0,0,1,.684.748,2.832,2.832,0,0,1,0,2.284,1.764,1.764,0,0,1-.684.752,2.192,2.192,0,0,1-2.09,0Zm1.838-.826a2.123,2.123,0,0,0,0-2.132,1.046,1.046,0,0,0-1.589,0,2.139,2.139,0,0,0,0,2.132,1.032,1.032,0,0,0,1.583,0Z" transform="translate(-117.714 -393.2)" fill="#131b44"/>
          <path id="Path_81" data-name="Path 81" d="M134.062,395.137v2.058a2.786,2.786,0,0,1-.687.233,3.952,3.952,0,0,1-.813.083,2.265,2.265,0,0,1-1.11-.259,1.759,1.759,0,0,1-.721-.745,2.755,2.755,0,0,1,0-2.3,1.763,1.763,0,0,1,.714-.748,2.156,2.156,0,0,1,1.081-.262,2.555,2.555,0,0,1,.81.125,1.744,1.744,0,0,1,.621.346l-.281.662a2.082,2.082,0,0,0-.546-.3,1.734,1.734,0,0,0-.575-.093q-1.169,0-1.168,1.413a1.649,1.649,0,0,0,.3,1.086,1.133,1.133,0,0,0,.916.357,2.5,2.5,0,0,0,.659-.089v-.923h-.791v-.645Z" transform="translate(-118.547 -393.2)" fill="#131b44"/>
        </g>
      </g>
    </g>
  </g>
</svg>
