<?xml version="1.0" encoding="UTF-8"?>
<svg width="16px" height="16px" viewBox="0 0 16 16" version="1.1" xmlns="http://www.w3.org/2000/svg" xmlns:xlink="http://www.w3.org/1999/xlink">
    <!-- Generator: Sketch 63.1 (92452) - https://sketch.com -->
    <title>ic/linkedin</title>
    <desc>Created with Sketch.</desc>
    <g id="Symbols" stroke="none" stroke-width="1" fill="none" fill-rule="evenodd">
        <g id="Footer" transform="translate(-1057.000000, -53.000000)" fill="#FFFFFF" fill-rule="nonzero">
            <g id="ic/linkedin" transform="translate(1053.000000, 49.000000)">
                <path d="M7.578,9 L7.578,20 L4,20 L4,9 L7.578,9 Z M12.578,9 L12.578,11.103 C13.014,10.517 14.337,9 16.423,9 L16.423,9 L16.5995313,9.0048125 C16.769875,9.0141875 16.9225,9.0365 17.065,9.065 C17.114,9.073 17.162,9.082 17.21,9.093 C17.25,9.104 17.286,9.117 17.324,9.129 C18.861,9.53 20,10.915 20,12.577 L20,12.577 L20,20 L16.423,20 L16.423,20 L16.423,13 C15.282,10.234 12.578,14 12.578,14 L12.578,14 L12.578,20 L9,20 L9,9 L12.578,9 Z M5.75,4 C6.71649831,4 7.5,4.78350169 7.5,5.75 C7.5,6.71649831 6.71649831,7.5 5.75,7.5 C4.78350169,7.5 4,6.71649831 4,5.75 C4,4.78350169 4.78350169,4 5.75,4 Z" id="Combined-Shape"></path>
            </g>
        </g>
    </g>
</svg>