<?xml version="1.0" encoding="UTF-8"?>
<svg width="28px" height="30px" viewBox="0 0 28 30" version="1.1" xmlns="http://www.w3.org/2000/svg" xmlns:xlink="http://www.w3.org/1999/xlink">
    <title>ic/logout</title>
    <defs>
        <path d="M13.3333333,1.33333333 C14.069713,1.33333333 14.6666667,1.930287 14.6666667,2.66666667 C14.6666667,3.40304633 14.069713,4 13.3333333,4 L13.3333333,4 L6.66666667,4 C5.930287,4 5.33333333,4.59695367 5.33333333,5.33333333 L5.33333333,5.33333333 L5.33333333,26.6666667 C5.33333333,27.4030463 5.930287,28 6.66666667,28 L6.66666667,28 L13.3333333,28 C14.069713,28 14.6666667,28.5969537 14.6666667,29.3333333 C14.6666667,30.069713 14.069713,30.6666667 13.3333333,30.6666667 L13.3333333,30.6666667 L6.66666667,30.6666667 C4.45752767,30.6666667 2.66666667,28.8758057 2.66666667,26.6666667 L2.66666667,26.6666667 L2.66666667,5.33333333 C2.66666667,3.12419433 4.45752767,1.33333333 6.66666667,1.33333333 L6.66666667,1.33333333 Z M21.7238576,9.72385763 C22.2445567,9.20315857 23.0887767,9.20315857 23.6094757,9.72385763 L23.6094757,9.72385763 L28.942809,15.057191 C28.9514077,15.0657897 28.9598644,15.0744766 28.9681792,15.0832488 C28.9840385,15.0999957 28.9996278,15.1173309 29.0147604,15.1350677 C29.027088,15.1494288 29.0391718,15.164201 29.0508908,15.1791659 C29.0666049,15.1994001 29.0814432,15.2195238 29.0957185,15.2400683 C29.140008,15.3035963 29.1779593,15.3700098 29.209769,15.4385697 C29.2403328,15.5044119 29.2657378,15.5732096 29.2853879,15.6443951 C29.2909871,15.6651101 29.2961525,15.6857853 29.3008162,15.7065504 C29.3052561,15.7257573 29.3092278,15.7454945 29.3127585,15.7653841 C29.3168344,15.7889588 29.3203465,15.8123199 29.3232377,15.835743 C29.3299066,15.8892172 29.3333333,15.9442084 29.3333333,16 L29.3301563,15.9077266 C29.3312844,15.9240874 29.332112,15.940465 29.3326393,15.9568505 L29.3333333,16 C29.3333333,16.0144388 29.3331038,16.028824 29.3326483,16.0431522 C29.332112,16.059535 29.3312844,16.0759126 29.3301563,16.0922734 C29.3285026,16.1170649 29.326092,16.142031 29.3230028,16.1667864 C29.3201311,16.1889948 29.3168618,16.2106862 29.3130571,16.2323017 C29.309361,16.2540305 29.3048818,16.2762216 29.2998591,16.2982057 C29.2953314,16.3174841 29.2905549,16.3364508 29.2853559,16.3553255 C29.2779629,16.382516 29.2696627,16.4092383 29.2605598,16.4355862 C29.2556527,16.4496548 29.2503605,16.4641985 29.244807,16.478665 C29.2348761,16.5045308 29.2242697,16.5297108 29.2129267,16.5544832 C29.2065833,16.5684643 29.1997966,16.5826533 29.1927446,16.5967434 C29.1706168,16.6402784 29.1493786,16.6775676 29.1264517,16.7136792 C29.1175594,16.7278998 29.1083968,16.7417478 29.0989486,16.7554584 C29.0848433,16.7757399 29.0703097,16.795637 29.0552492,16.815106 C29.0210247,16.859436 28.9835074,16.9021107 28.942809,16.942809 L29.0053508,16.875842 C28.9935549,16.8893707 28.9814904,16.9026592 28.9691656,16.915699 L28.942809,16.942809 L23.6094757,22.2761424 C23.0887767,22.7968414 22.2445567,22.7968414 21.7238576,22.2761424 C21.2031586,21.7554433 21.2031586,20.9112233 21.7238576,20.3905243 L21.7238576,20.3905243 L24.7796667,17.3333333 L12,17.3333333 C11.3069368,17.3333333 10.737379,16.8045439 10.6727703,16.1284089 L10.6666667,16 C10.6666667,15.2636203 11.2636203,14.6666667 12,14.6666667 L12,14.6666667 L24.7806667,14.6663333 L21.7238576,11.6094757 C21.2378718,11.1234899 21.2054728,10.3556815 21.6266605,9.83211933 Z" id="path-1"></path>
    </defs>
    <g id="PWA" stroke="none" stroke-width="1" fill="none" fill-rule="evenodd">
        <g id="icons" transform="translate(-174.000000, -670.000000)">
            <g id="ic_Add-User-Copy" transform="translate(172.000000, 669.000000)">
                <mask id="mask-2" fill="white">
                    <use xlink:href="#path-1"></use>
                </mask>
                <use id="Combined-Shape" fill="#FFFFFF" xlink:href="#path-1"></use>
            </g>
        </g>
    </g>
</svg>