<svg xmlns="http://www.w3.org/2000/svg" width="22" height="22" viewBox="0 0 22 22">
    <g fill="none" fill-rule="evenodd">
        <g fill="#8A9FBA">
            <g>
                <g>
                    <path d="M7.333 2.75c1.013 0 1.834.82 1.834 1.833v12.834c0 1.012-.821 1.833-1.834 1.833-1.012 0-1.833-.82-1.833-1.833V4.583c0-1.012.82-1.833 1.833-1.833zm7.334 0c1.012 0 1.833.82 1.833 1.833v12.834c0 1.012-.82 1.833-1.833 1.833s-1.834-.82-1.834-1.833V4.583c0-1.012.821-1.833 1.834-1.833z" transform="translate(-664 -129) translate(555 120) translate(109 9)"/>
                </g>
            </g>
        </g>
    </g>
</svg>
