<svg xmlns="http://www.w3.org/2000/svg" width="32.316" height="32.316" viewBox="0 0 32.316 32.316">
    <defs>
        <linearGradient id="prefix__linear-gradient" x1=".5" x2=".5" y2="1" gradientUnits="objectBoundingBox">
            <stop offset="0" stop-color="#00d7ef"/>
            <stop offset="1" stop-color="#00afef"/>
        </linearGradient>
    </defs>
    <path id="prefix__question" d="M16.158 0a16.158 16.158 0 1 0 16.158 16.158A16.176 16.176 0 0 0 16.158 0zm0 25.583a1.346 1.346 0 1 1 1.342-1.346 1.347 1.347 0 0 1-1.342 1.346zm2.131-8.561a1.352 1.352 0 0 0-.785 1.224v.6a1.346 1.346 0 1 1-2.693 0v-.6a4.057 4.057 0 0 1 2.35-3.671 4.4 4.4 0 0 0 2.363-3.131 3.366 3.366 0 1 0-6.732 0 1.347 1.347 0 1 1-2.693 0 6.059 6.059 0 0 1 12.118 0 7.016 7.016 0 0 1-3.928 5.578zm0 0"/>
</svg>
