<?xml version="1.0" encoding="UTF-8"?>
<svg width="24px" height="18px" viewBox="0 0 24 18" version="1.1" xmlns="http://www.w3.org/2000/svg" xmlns:xlink="http://www.w3.org/1999/xlink">
    <title>ic/swap-cards</title>
    <g id="PWA" stroke="none" stroke-width="1" fill="none" fill-rule="evenodd">
        <g id="icons" transform="translate(-30.000000, -252.000000)" fill="#FFFFFF">
            <g id="ic/lock" transform="translate(30.000000, 249.000000)">
                <path d="M17.629044,3 C19.3489257,3 20.7679761,4.3090632 20.9742284,6.00031755 L21.2727273,6 C22.7789584,6 24,7.22516673 24,8.73648648 L24,18.2635135 C24,19.7748333 22.7789584,21 21.2727273,21 L5.72727273,21 C4.47099336,21 3.41310539,20.1477159 3.09659777,18.987971 C1.36338475,18.847128 0,17.3723585 0,15.5739487 L0,15.5739487 L0,6.42605126 C0,4.5338954 1.5092284,3 3.37095598,3 L3.37095598,3 Z M21.2727273,7.82432432 L5.72727273,7.82432432 C5.22519568,7.82432432 4.81818182,8.23271323 4.81818182,8.73648648 L4.81818182,18.2635135 C4.81818182,18.7672867 5.22519568,19.1756757 5.72727273,19.1756757 L21.2727273,19.1756757 C21.7748044,19.1756757 22.1818182,18.7672867 22.1818182,18.2635135 L22.1818182,8.73648648 C22.1818182,8.23271323 21.7748044,7.82432432 21.2727273,7.82432432 Z M10,9.2 C11.5463973,9.2 12.8,10.4536027 12.8,12 C12.8,12.6515487 12.5774582,13.25112 12.2042391,13.7268495 C13.1631843,14.3320928 13.8,15.40133 13.8,16.6193034 C13.8,17.0611312 13.4418278,17.4193034 13,17.4193034 C12.592159,17.4193034 12.2555984,17.1141152 12.2062331,16.7196537 L12.2,16.6193034 C12.2,15.6647685 11.4648868,14.8819286 10.5299078,14.8060309 L10.3806966,14.8 L9.61930339,14.8 C8.61452987,14.8 7.8,15.6145299 7.8,16.6193034 C7.8,17.0611312 7.4418278,17.4193034 7,17.4193034 C6.5581722,17.4193034 6.2,17.0611312 6.2,16.6193034 C6.2,15.40133 6.8368157,14.3320928 7.79565225,13.7263868 C7.42254178,13.25112 7.2,12.6515487 7.2,12 C7.2,10.4536027 8.4536027,9.2 10,9.2 Z M17.629044,4.86875523 L3.37095598,4.86875523 C2.52471617,4.86875523 1.83870326,5.56598041 1.83870326,6.42605126 L1.83870326,6.42605126 L1.83870326,15.5739487 C1.83870326,16.3040679 2.33307224,16.9168336 3.00015735,17.0853362 L3,8.73648648 C3,7.22516673 4.22104159,6 5.72727273,6 L19.1032227,5.99991185 C18.9208609,5.34699853 18.3299041,4.86875523 17.629044,4.86875523 L17.629044,4.86875523 Z M17.8759766,14.2 C18.3178044,14.2 18.6759766,14.5581722 18.6759766,15 C18.6759766,15.407841 18.3707884,15.7444016 17.9763269,15.7937669 L17.8759766,15.8 L15.8759766,15.8 C15.4341488,15.8 15.0759766,15.4418278 15.0759766,15 C15.0759766,14.592159 15.3811647,14.2555984 15.7756263,14.2062331 L15.8759766,14.2 L17.8759766,14.2 Z M10,10.8 C9.3372583,10.8 8.8,11.3372583 8.8,12 C8.8,12.6627417 9.3372583,13.2 10,13.2 C10.6627417,13.2 11.2,12.6627417 11.2,12 C11.2,11.3372583 10.6627417,10.8 10,10.8 Z M19.8759766,10.8738281 C20.3178044,10.8738281 20.6759766,11.2320003 20.6759766,11.6738281 C20.6759766,12.0816692 20.3707884,12.4182297 19.9763269,12.467595 L19.8759766,12.4738281 L15.8759766,12.4738281 C15.4341488,12.4738281 15.0759766,12.1156559 15.0759766,11.6738281 C15.0759766,11.2659871 15.3811647,10.9294265 15.7756263,10.8800613 L15.8759766,10.8738281 L19.8759766,10.8738281 Z" id="Combined-Shape"></path>
            </g>
        </g>
    </g>
</svg>