<svg xmlns="http://www.w3.org/2000/svg" xmlns:xlink="http://www.w3.org/1999/xlink" width="35" height="35" viewBox="0 0 35 35">
  <defs>
    <linearGradient id="linear-gradient-tw" x1="0.848" y1="0.77" x2="0.14" y2="0.123" gradientUnits="objectBoundingBox">
      <stop offset="0" stop-color="#16ecd1"/>
      <stop offset="1" stop-color="#00c3ef"/>
    </linearGradient>
    <clipPath id="clip-path-tw">
      <rect id="Rectangle_37" data-name="Rectangle 37" width="35" height="35" transform="translate(1135 964)" stroke="#707070" stroke-width="1" fill="url(#linear-gradient-tw)"/>
    </clipPath>
    <linearGradient id="linear-gradient-2-tw" x1="0.5" y1="0" x2="0.5" y2="1" xlink:href="#linear-gradient-tw"/>
  </defs>
  <g id="Mask_Group_2" data-name="Mask Group 2" transform="translate(-1135 -964)" clip-path="url(#clip-path-tw)">
    <g id="Social_Icon_Twitter" data-name="Social Icon_Twitter" transform="translate(1135.002 964.002)">
      <path id="Path_11" data-name="Path 11" d="M17.736,35.175a17.5,17.5,0,1,1,17.5-17.5,17.5,17.5,0,0,1-17.5,17.5Zm0-33.122A15.621,15.621,0,1,0,33.356,17.675,15.621,15.621,0,0,0,17.736,2.053Z" transform="translate(-0.237 -0.177)" fill="url(#linear-gradient-2-tw)"/>
      <path id="Path_12" data-name="Path 12" d="M27.795,11.29a8.343,8.343,0,0,1-2.062.588c.333-.055.822-.655,1.018-.9a3.792,3.792,0,0,0,.685-1.24c.018-.035.032-.08,0-.108a.113.113,0,0,0-.11.011,10.535,10.535,0,0,1-2.448.935.163.163,0,0,1-.168-.044,1.924,1.924,0,0,0-.214-.218,4.325,4.325,0,0,0-1.185-.728,4.122,4.122,0,0,0-1.819-.292,4.368,4.368,0,0,0-1.725.487,4.449,4.449,0,0,0-1.39,1.137,4.278,4.278,0,0,0-.841,1.658,4.513,4.513,0,0,0-.043,1.757c.012.1,0,.112-.085.1A13.059,13.059,0,0,1,9,10.151c-.1-.113-.151-.113-.232.009A4.26,4.26,0,0,0,9.494,15.2c.165.156.333.312.515.455A4.29,4.29,0,0,1,8.387,15.2c-.1-.062-.147-.027-.156.085a2.646,2.646,0,0,0,.032.482A4.311,4.311,0,0,0,10.92,19.2a2.607,2.607,0,0,0,.54.165,4.836,4.836,0,0,1-1.594.05c-.115-.023-.159.035-.115.147a4.472,4.472,0,0,0,3.344,2.8c.151.027.3.027.455.062-.009.014-.018.014-.027.027a5.287,5.287,0,0,1-2.285,1.21,8.16,8.16,0,0,1-3.468.445c-.186-.027-.225-.025-.276,0s0,.076.053.124c.237.158.478.3.723.429a11.444,11.444,0,0,0,2.319.928,12.355,12.355,0,0,0,11.99-2.8c2.457-2.441,3.318-5.808,3.318-9.177,0-.133.156-.205.248-.275a8.111,8.111,0,0,0,1.624-1.7.492.492,0,0,0,.1-.326v-.018C27.871,11.237,27.878,11.253,27.795,11.29Z" transform="translate(-0.237 -0.177)" fill="url(#linear-gradient-2-tw)"/>
      <path id="Path_13" data-name="Path 13" d="M13.531,26Z" transform="translate(-0.237 -0.177)" fill-rule="evenodd" fill="url(#linear-gradient-2-tw)"/>
      <path id="Path_14" data-name="Path 14" d="M13.531,26Z" transform="translate(-0.237 -0.177)" fill-rule="evenodd" fill="url(#linear-gradient-2-tw)"/>
      <path id="Path_15" data-name="Path 15" d="M14.218,26.022c0-.034.354,0,0,0C14.218,26,14.262,26.022,14.218,26.022Z" transform="translate(-0.237 -0.177)" fill-rule="evenodd" fill="url(#linear-gradient-2-tw)"/>
      <path id="Path_16" data-name="Path 16" d="M21.432,9.3a.074.074,0,0,1-.085,0Z" transform="translate(-0.237 -0.177)" fill-rule="evenodd" fill="url(#linear-gradient-2-tw)"/>
    </g>
  </g>
</svg>
