<?xml version="1.0" encoding="UTF-8"?>
<svg width="17px" height="20px" viewBox="0 0 17 20" version="1.1" xmlns="http://www.w3.org/2000/svg" xmlns:xlink="http://www.w3.org/1999/xlink">
    <title>ic/user/white</title>
    <defs>
        <path d="M16,14 C18.7614237,14 21,16.2385763 21,19 L21,19 L21,21 C21,21.5522847 20.5522847,22 20,22 C19.4477153,22 19,21.5522847 19,21 L19,21 L19,19 C19,17.3431458 17.6568542,16 16,16 L16,16 L9,16 C7.34314575,16 6,17.3431458 6,19 L6,19 L6,21 C6,21.5522847 5.55228475,22 5,22 C4.44771525,22 4,21.5522847 4,21 L4,21 L4,19 C4,16.2385763 6.23857625,14 9,14 L9,14 Z M12.5,2 C15.2614237,2 17.5,4.23857625 17.5,7 C17.5,9.76142375 15.2614237,12 12.5,12 C9.73857625,12 7.5,9.76142375 7.5,7 C7.5,4.23857625 9.73857625,2 12.5,2 Z M12.5,4 C10.8431458,4 9.5,5.34314575 9.5,7 C9.5,8.65685425 10.8431458,10 12.5,10 C14.1568542,10 15.5,8.65685425 15.5,7 C15.5,5.34314575 14.1568542,4 12.5,4 Z" id="path-1"></path>
    </defs>
    <g id="PWA" stroke="none" stroke-width="1" fill="none" fill-rule="evenodd">
        <g id="icons" transform="translate(-34.000000, -203.000000)">
            <g id="ic/user" transform="translate(30.000000, 201.000000)">
                <mask id="mask-2" fill="white">
                    <use xlink:href="#path-1"></use>
                </mask>
                <use id="Combined-Shape" fill="#FFFFFF" xlink:href="#path-1"></use>
            </g>
        </g>
    </g>
</svg>