<svg xmlns="http://www.w3.org/2000/svg" xmlns:xlink="http://www.w3.org/1999/xlink" width="35" height="35" viewBox="0 0 35 35">
  <defs>
    <linearGradient id="linear-gradient-yt" x1="0.848" y1="0.77" x2="0.14" y2="0.123" gradientUnits="objectBoundingBox">
      <stop offset="0" stop-color="#16ecd1"/>
      <stop offset="1" stop-color="#00c3ef"/>
    </linearGradient>
    <clipPath id="clip-path-yt">
      <rect id="Rectangle_55" data-name="Rectangle 55" width="35" height="35" transform="translate(1135 964)" stroke="#707070" stroke-width="1" fill="url(#linear-gradient-yt)"/>
    </clipPath>
    <linearGradient id="linear-gradient-2-yt" x1="0.5" y1="0" x2="0.5" y2="1" xlink:href="#linear-gradient-yt"/>
    <linearGradient id="linear-gradient-7-yt" x1="0.134" y1="-0.043" x2="0.854" y2="0.971" xlink:href="#linear-gradient-yt"/>
  </defs>
  <g id="Group_79" data-name="Group 79" transform="translate(-1347 -960)">
    <g id="Mask_Group_7" data-name="Mask Group 7" transform="translate(212 -4)" clip-path="url(#clip-path-yt)">
      <g id="Social_Icon_Twitter" data-name="Social Icon_Twitter" transform="translate(1135.002 964.002)">
        <path id="Path_90" data-name="Path 90" d="M17.736,35.175a17.5,17.5,0,1,1,17.5-17.5,17.5,17.5,0,0,1-17.5,17.5Zm0-33.122A15.621,15.621,0,1,0,33.356,17.675,15.621,15.621,0,0,0,17.736,2.053Z" transform="translate(-0.237 -0.177)" fill="url(#linear-gradient-2-yt)"/>
        <path id="Path_91" data-name="Path 91" d="M13.531,26Z" transform="translate(-0.237 -0.177)" fill-rule="evenodd" fill="url(#linear-gradient-2-yt)"/>
        <path id="Path_92" data-name="Path 92" d="M13.531,26Z" transform="translate(-0.237 -0.177)" fill-rule="evenodd" fill="url(#linear-gradient-2-yt)"/>
        <path id="Path_93" data-name="Path 93" d="M14.218,26.022c0-.034.354,0,0,0C14.218,26,14.262,26.022,14.218,26.022Z" transform="translate(-0.237 -0.177)" fill-rule="evenodd" fill="url(#linear-gradient-2-yt)"/>
        <path id="Path_94" data-name="Path 94" d="M21.432,9.3a.074.074,0,0,1-.085,0Z" transform="translate(-0.237 -0.177)" fill-rule="evenodd" fill="url(#linear-gradient-2-yt)"/>
      </g>
    </g>
    <g id="Group_77" data-name="Group 77" transform="translate(1248.421 893)">
      <path id="Subtraction_1" data-name="Subtraction 1" d="M-1176.857,448.3c-.072,0-7.253-.006-9.036-.487a2.9,2.9,0,0,1-2.045-2.057,30.652,30.652,0,0,1-.483-5.6,30.653,30.653,0,0,1,.483-5.6,2.9,2.9,0,0,1,2.045-2.057c1.783-.481,8.964-.487,9.036-.487s7.253.006,9.036.487a2.9,2.9,0,0,1,2.045,2.057,30.645,30.645,0,0,1,.483,5.6,30.645,30.645,0,0,1-.483,5.6,2.9,2.9,0,0,1-2.045,2.057C-1169.6,448.29-1176.785,448.3-1176.857,448.3Zm-2.365-11.587v6.878l6.045-3.439-6.045-3.439Z" transform="translate(1293 -356)" stroke="rgba(0,0,0,0)" stroke-miterlimit="10" stroke-width="1" fill="url(#linear-gradient-7-yt)"/>
    </g>
  </g>
</svg>
