<?xml version="1.0" encoding="UTF-8"?>
<svg width="20px" height="14px" viewBox="0 0 20 14" version="1.1" xmlns="http://www.w3.org/2000/svg" xmlns:xlink="http://www.w3.org/1999/xlink">
    <title>ic/youtube</title>
    <g id="Symbols" stroke="none" stroke-width="1" fill="none" fill-rule="evenodd">
        <g id="Footer" transform="translate(-1123.000000, -54.000000)" fill="#FFFFFF" fill-rule="nonzero">
            <g id="Shape" transform="translate(1121.000000, 49.000000)">
                <path d="M21.5878467,7.19115718 C21.3573784,6.3343476 20.6818428,5.65893405 19.8251553,5.4282217 C18.2600954,5 11.9997334,5 11.9997334,5 C11.9997334,5 5.73961564,5 4.17455568,5.41198636 C3.3343476,5.64245459 2.64233256,6.33446966 2.41186433,7.19115718 C2,8.75609507 2,12.0015712 2,12.0015712 C2,12.0015712 2,15.2634047 2.41186433,16.8119852 C2.64257668,17.6686727 3.31786814,18.3440863 4.17467775,18.5747986 C5.75609507,19.0031424 11.9999776,19.0031424 11.9999776,19.0031424 C11.9999776,19.0031424 18.2600954,19.0031424 19.8251553,18.591156 C20.6819649,18.3605657 21.3573784,17.6851522 21.5880908,16.8284647 C21.9999171,15.2634047 21.9999171,12.0180507 21.9999171,12.0180507 C21.9999171,12.0180507 22.0163125,8.75609507 21.5878467,7.19115718 L21.5878467,7.19115718 Z M10.0065738,14.9998555 L10.0065738,9.00328692 L15.2123727,12.0015712 L10.0065738,14.9998555 Z"></path>
            </g>
        </g>
    </g>
</svg>