<?xml version="1.0" encoding="utf-8"?>
<!-- Generator: Adobe Illustrator 17.0.0, SVG Export Plug-In . SVG Version: 6.00 Build 0)  -->
<!DOCTYPE svg PUBLIC "-//W3C//DTD SVG 1.1//EN" "http://www.w3.org/Graphics/SVG/1.1/DTD/svg11.dtd">
<svg version="1.1" id="Layer_1" xmlns="http://www.w3.org/2000/svg" xmlns:xlink="http://www.w3.org/1999/xlink" x="0px" y="0px"
	 width="30px" height="30px" viewBox="0 0 30 30" enable-background="new 0 0 30 30" xml:space="preserve">
<g>
	<g>
		<g>
			<g>
				<g>
					<path fill="#072157" d="M15,1.25c7.594,0,13.75,6.156,13.75,13.75S22.594,28.75,15,28.75S1.25,22.594,1.25,15
						S7.406,1.25,15,1.25z M15,3.75C8.787,3.75,3.75,8.787,3.75,15S8.787,26.25,15,26.25S26.25,21.213,26.25,15S21.213,3.75,15,3.75
						z M15,6.25c0.69,0,1.25,0.56,1.25,1.25v6.982l3.384,3.384c0.488,0.488,0.488,1.28,0,1.768s-1.28,0.488-1.768,0l-3.75-3.75
						C13.882,15.649,13.75,15.332,13.75,15V7.5C13.75,6.81,14.31,6.25,15,6.25z"/>
				</g>
			</g>
		</g>
	</g>
</g>
</svg>
