 <svg xmlns="http://www.w3.org/2000/svg" xmlns:xlink="http://www.w3.org/1999/xlink" viewBox="0 0 299 82"><defs><polygon id="group-2-a" points="0 .398 59.249 .398 59.249 18.701 0 18.701" /></defs><g fill="none" fill-rule="evenodd"><path fill="#1A3446" fill-rule="nonzero" d="M115.059437,70.9745051 C121.752394,70.9745051 127.803099,65.9100983 127.803099,56.2553695 C127.803099,46.5851661 121.843944,41.624861 115.103099,41.624861 C108.363662,41.624861 102.580563,46.5626576 102.580563,56.2989797 C102.580563,66.0212339 108.36507,70.9745051 115.059437,70.9745051 M89.9242254,56.2117593 C89.9242254,40.5796237 101.308732,31.1049627 115.191831,31.1049627 C129.05662,31.1049627 140.460845,40.5613356 140.460845,56.2117593 C140.460845,71.8762508 128.98338,81.4944034 115.059437,81.4944034 C101.121408,81.4944034 89.9242254,71.8537424 89.9242254,56.2117593 M145.15,56.2994017 C145.15,40.5814525 155.43169,31.1053847 169.311972,31.1053847 C180.924648,31.1053847 189.528873,36.8155034 192.323239,47.7236729 L178.869718,47.7236729 C177.278169,43.6580797 174.090845,41.6238763 169.311972,41.6238763 C161.288028,41.6238763 157.806338,48.3187407 157.806338,56.2994017 C157.806338,64.3025712 161.302113,70.9749271 169.311972,70.9749271 C174.03169,70.9749271 177.217606,68.9111814 178.869718,64.7850966 L192.323239,64.7850966 C189.551408,74.8210627 181.271127,81.4934186 169.311972,81.4934186 C155.414789,81.4934186 145.15,72.0004695 145.15,56.2994017 M196.482113,56.2994017 C196.482113,40.5814525 206.763803,31.1053847 220.644085,31.1053847 C232.256761,31.1053847 240.860986,36.8155034 243.655352,47.7236729 L230.201831,47.7236729 C228.610282,43.6580797 225.422958,41.6238763 220.644085,41.6238763 C212.620141,41.6238763 209.138451,48.3187407 209.138451,56.2994017 C209.138451,64.3025712 212.634225,70.9749271 220.644085,70.9749271 C225.363803,70.9749271 228.549718,68.9111814 230.201831,64.7850966 L243.655352,64.7850966 C240.883521,74.8210627 232.603239,81.4934186 220.644085,81.4934186 C206.746901,81.4934186 196.482113,72.0004695 196.482113,56.2994017" /><g transform="translate(0 .008)"><mask id="group-2-b" fill="#fff"><use xlink:href="#group-2-a" /></mask><polygon fill="#0057E4" fill-rule="nonzero" points="0 .398 8.552 18.701 49.083 18.701 59.249 .398" mask="url(#group-2-b)" /></g><polygon fill="#0057E4" fill-rule="nonzero" points="69.633 .407 34.358 62.027 43.979 80.786 81.544 18.709 117.276 18.709 126.898 .407" /><path fill="#1A3446" fill-rule="nonzero" d="M282.574366,66.9705288 C285.170141,64.4073763 286.468732,60.8876136 286.468732,56.4070203 C286.468732,51.9292407 285.170141,48.4080712 282.574366,45.8435119 C279.977183,43.2789525 276.939155,41.9973763 273.457465,41.9973763 C269.975775,41.9973763 266.953239,43.2648847 264.385634,45.7984949 C261.819437,48.3335119 260.536338,51.8406136 260.536338,56.3198 C260.536338,60.7975797 261.833521,64.3342237 264.430704,66.9269186 C267.026479,69.5196136 270.050423,70.8152576 273.502535,70.8152576 C276.954648,70.8152576 279.977183,69.5336814 282.574366,66.9705288 M247.88,56.3198 C247.88,41.3277492 257.73493,31.2130034 271.068732,31.2130034 C277.794085,31.2130034 282.927887,33.9843593 286.468732,39.5228508 L286.468732,31.9206136 L298.858873,31.9206136 L298.858873,80.8934271 L286.468732,80.8934271 L286.468732,72.6736136 C282.750423,78.6256983 277.587042,81.6010373 270.98,81.6010373 C258.320845,81.6010373 247.88,71.7606136 247.88,56.3198" /></g></svg>
